# xmcd
#
# Track frame offsets: 
#        150
#        7736
#        29030
#        47831
#        66941
#        83056
#        98806
#        107800
#        127851
#        146744
#        167594
#        182621
#        203726
#        233531
#        242711
#        277301
#
# Disc length: 4018 seconds
#
# Revision: 0
# Processed by: cddbd v1.5.2PL0 Copyright (c) Steve Scherf et al.
# Submitted via: ExactAudioCopy v0.99pb4
#
DISCID=d70fb010
DTITLE=Raheem DeVaughn - The Love and War MasterPeace (The Love Side)
DYEAR=2010
DGENRE=R&B
TTITLE0=Dr. Cornel West Intro
TTITLE1=Bulletproof
TTITLE2=The Greatness
TTITLE3=I Don't Care
TTITLE4=Black and Blue
TTITLE5=Mr. Right
TTITLE6=Dr. Cornel West Interlude
TTITLE7=Fragile
TTITLE8=My Wife
TTITLE9=B.O.B.
TTITLE10=Bedroom
TTITLE11=Microphone
TTITLE12=Garden Of Love
TTITLE13=Dr. Cornel West P.S.A.
TTITLE14=Nobody Wins A War
TTITLE15=Revelations 2010
EXTD=
EXTT0=
EXTT1=
EXTT2=
EXTT3=
EXTT4=
EXTT5=
EXTT6=
EXTT7=
EXTT8=
EXTT9=
EXTT10=
EXTT11=
EXTT12=
EXTT13=
EXTT14=
EXTT15=
PLAYORDER=
